<svg xmlns="http://www.w3.org/2000/svg" viewBox="0 0 500 90" width="500" height="90">
  <defs>
    <style>@import url('https://fonts.googleapis.com/css2?family=Playfair+Display:wght@400&amp;display=swap');</style>
    <clipPath id="c2"><rect x="0" y="0" width="54" height="64" rx="3"/></clipPath>
  </defs>
  <g transform="translate(0, 13)">
    <rect x="0" y="0" width="54" height="64" rx="3" fill="none" stroke="#1a1a1a" stroke-width="1.5"/>
    <line x1="0" y1="32" x2="54" y2="32" stroke="#1a1a1a" stroke-width="1.0"/>
    <line x1="18" y1="0"  x2="18" y2="32" stroke="#1a1a1a" stroke-width="0.7"/>
    <line x1="36" y1="0"  x2="36" y2="32" stroke="#1a1a1a" stroke-width="0.7"/>
    <circle cx="9"  cy="16" r="1.8" fill="#1a1a1a" opacity="0.7"/>
    <circle cx="45" cy="16" r="1.8" fill="#1a1a1a" opacity="0.7"/>
    <g clip-path="url(#c2)">
      <path d="M10 64 Q10 40 27 40 Q44 40 44 64" fill="none" stroke="#1a1a1a" stroke-width="0.9"/>
      <path d="M16 64 Q16 44 27 44 Q38 44 38 64" fill="none" stroke="#1a1a1a" stroke-width="0.75"/>
      <path d="M21 64 Q21 48 27 48 Q33 48 33 64" fill="none" stroke="#1a1a1a" stroke-width="0.6"/>
      <circle cx="27" cy="40" r="2.2" fill="none" stroke="#1a1a1a" stroke-width="0.7"/>
      <circle cx="27" cy="40" r="1.0" fill="#1a1a1a"/>
    </g>
  </g>
  <text x="68" y="49" font-family="'Playfair Display', Georgia, serif" font-size="32" font-weight="400" letter-spacing="5" fill="#1a1a1a">CASALITHIC</text>
  <text x="69" y="68" font-family="'Playfair Display', Georgia, serif" font-size="10" font-weight="400" letter-spacing="6" fill="#1a1a1a" opacity="0.58">LIVING &amp; SPACES</text>
</svg>
