<svg xmlns="http://www.w3.org/2000/svg" viewBox="0 0 500 90" width="500" height="90">
  <defs>
    <style>@import url('https://fonts.googleapis.com/css2?family=Cormorant+Garamond:wght@300;400&amp;display=swap');</style>
    <clipPath id="c1"><rect x="0" y="0" width="54" height="64" rx="3"/></clipPath>
  </defs>
  <g transform="translate(0, 13)">
    <rect x="0" y="0" width="54" height="64" rx="3" fill="none" stroke="#1a1a1a" stroke-width="1.5"/>
    <line x1="27" y1="0" x2="27" y2="64" stroke="#1a1a1a" stroke-width="1.0"/>
    <g clip-path="url(#c1)">
      <path d="M13 0 Q10 16 13 32 Q16 48 13 64" fill="none" stroke="#1a1a1a" stroke-width="0.85"/>
      <path d="M20 0 Q16 16 20 32 Q24 48 20 64" fill="none" stroke="#1a1a1a" stroke-width="0.75"/>
      <path d="M7  0 Q5  16 8  32 Q11 48 7  64" fill="none" stroke="#1a1a1a" stroke-width="0.55" opacity="0.6"/>
      <ellipse cx="14" cy="32" rx="4" ry="5.5" fill="none" stroke="#1a1a1a" stroke-width="0.7"/>
      <path d="M40 18 Q45 24 38 30 Q33 36 42 44 Q47 48 40 54" fill="none" stroke="#1a1a1a" stroke-width="0.8"/>
      <path d="M35 10 Q42 18 36 26 Q30 34 38 40 Q44 46 37 58" fill="none" stroke="#1a1a1a" stroke-width="0.5" opacity="0.65"/>
      <path d="M44 22 Q49 30 44 38" fill="none" stroke="#1a1a1a" stroke-width="0.45" opacity="0.5"/>
    </g>
    <line x1="0" y1="32" x2="27" y2="32" stroke="#1a1a1a" stroke-width="0.55" opacity="0.35"/>
  </g>
  <text x="68" y="51" font-family="'Cormorant Garamond', Georgia, serif" font-size="34" font-weight="400" letter-spacing="5" fill="#1a1a1a">CASALITHIC</text>
  <text x="69" y="70" font-family="'Cormorant Garamond', Georgia, serif" font-size="10" font-weight="300" letter-spacing="6" fill="#1a1a1a" opacity="0.58">LIVING &amp; SPACES</text>
</svg>
