<svg xmlns="http://www.w3.org/2000/svg" viewBox="0 0 490 90" width="490" height="90">
  <defs>
    <style>@import url('https://fonts.googleapis.com/css2?family=Libre+Baskerville:wght@400&amp;display=swap');</style>
    <clipPath id="c4"><rect x="0" y="0" width="54" height="64" rx="3"/></clipPath>
  </defs>
  <g transform="translate(0, 13)">
    <rect x="0" y="0" width="54" height="64" rx="3" fill="none" stroke="#1a1a1a" stroke-width="1.5"/>
    <line x1="27" y1="0" x2="27" y2="64" stroke="#1a1a1a" stroke-width="1.0"/>
    <g clip-path="url(#c4)">
      <path d="M5 64 L5 34 Q5 10 13.5 10 Q22 10 22 34 L22 64" fill="none" stroke="#1a1a1a" stroke-width="0.9"/>
      <path d="M8 64 L8 35 Q8 14 13.5 14 Q19 14 19 35 L19 64" fill="none" stroke="#1a1a1a" stroke-width="0.55" opacity="0.55"/>
      <line x1="2" y1="64" x2="25" y2="64" stroke="#1a1a1a" stroke-width="0.8"/>
      <line x1="13.5" y1="10" x2="13.5" y2="4" stroke="#1a1a1a" stroke-width="0.9"/>
      <line x1="9" y1="4" x2="18" y2="4" stroke="#1a1a1a" stroke-width="1.1"/>
      <path d="M27 32 Q33 22 40 32 Q47 42 40 52" fill="none" stroke="#1a1a1a" stroke-width="0.9"/>
      <path d="M27 32 Q31 18 40 32 Q49 46 40 58" fill="none" stroke="#1a1a1a" stroke-width="0.7"/>
      <path d="M27 32 Q29 10 40 32 Q51 54 40 64" fill="none" stroke="#1a1a1a" stroke-width="0.5" opacity="0.65"/>
      <circle cx="40" cy="32" r="3" fill="none" stroke="#1a1a1a" stroke-width="0.75"/>
      <circle cx="40" cy="32" r="1.3" fill="#1a1a1a"/>
    </g>
  </g>
  <text x="68" y="47" font-family="'Libre Baskerville', Georgia, serif" font-size="28" font-weight="400" letter-spacing="5" fill="#1a1a1a">CASALITHIC</text>
  <text x="69" y="66" font-family="'Libre Baskerville', Georgia, serif" font-size="10" font-weight="400" letter-spacing="6.5" fill="#1a1a1a" opacity="0.58">LIVING &amp; SPACES</text>
</svg>
